<svg id="Laundry_Icon" data-name="Laundry Icon" xmlns="http://www.w3.org/2000/svg" width="25" height="30" viewBox="0 0 25 30">
  <g id="Frame" fill="#b12422">
    <path d="M 22 29.25 L 3 29.25 C 1.759349942207336 29.25 0.75 28.24065017700195 0.75 27 L 0.75 3 C 0.75 1.759349942207336 1.759349942207336 0.75 3 0.75 L 22 0.75 C 23.24065017700195 0.75 24.25 1.759349942207336 24.25 3 L 24.25 27 C 24.25 28.24065017700195 23.24065017700195 29.25 22 29.25 Z" stroke="none"/>
    <path d="M 3 1.5 C 2.17289924621582 1.5 1.5 2.17289924621582 1.5 3 L 1.5 27 C 1.5 27.82710075378418 2.17289924621582 28.5 3 28.5 L 22 28.5 C 22.82710075378418 28.5 23.5 27.82710075378418 23.5 27 L 23.5 3 C 23.5 2.17289924621582 22.82710075378418 1.5 22 1.5 L 3 1.5 M 3 0 L 22 0 C 23.65685081481934 0 25 1.3431396484375 25 3 L 25 27 C 25 28.65685081481934 23.65685081481934 30 22 30 L 3 30 C 1.3431396484375 30 0 28.65685081481934 0 27 L 0 3 C 0 1.3431396484375 1.3431396484375 0 3 0 Z" stroke="none" fill="#b12422"/>
  </g>
  <circle id="Door" cx="6.5" cy="6.5" r="6.5" transform="translate(6 12)" fill="#121212"/>
  <path id="Separator" d="M1908.688-208.654h23.584" transform="translate(-1908 215.654)" fill="none" stroke="#121212" stroke-width="1"/>
  <g id="Controls" transform="translate(3 2)" fill="#121212">
    <path d="M 6.75 2.75 L 0.25 2.75 L 0.25 0.25 L 6.75 0.25 L 6.75 2.75 Z" stroke="none"/>
    <path d="M 0.5 0.5 L 0.5 2.5 L 6.5 2.5 L 6.5 0.5 L 0.5 0.5 M 0 0 L 7 0 L 7 3 L 0 3 L 0 0 Z" stroke="none" fill="#b12422"/>
  </g>
</svg>
