<svg xmlns="http://www.w3.org/2000/svg" width="179.866" height="125.848" viewBox="0 0 179.866 125.848"><path d="M343.221,313.168c-1.875-.97-4.647-11.527-10.907-14.61-16.989-8.368-30.341-10.463-32.685-11.4s-.809-14.473-9.431-16.117c-5.883-1.122-9.95,15.106-12.7,15.907-16.208,4.726-46.665,11.52-62.935,22.285l11.788,11.256s-5.009,2.3-15.506,10.033a140.684,140.684,0,0,0-17.037,14.626l18.907,18.246s4.3-5.024,14.18-12.4,14.28-9.17,14.28-9.17l11.415,11s-6.634,4.565-13.874,9.957a118.951,118.951,0,0,0-13.647,12.227l22.644,21.824a205.807,205.807,0,0,1,18.019-15.293c10.677-8.088,16.156-10.62,16.156-10.62l14.381,12.8c19.9-14.851,59.587-33.634,70.785-36.635,2.367-.634,7.118-19.561,6.576-21.583C373.194,323.854,345.1,314.138,343.221,313.168ZM330.264,315.3a44.264,44.264,0,0,1-7.058.807,3.531,3.531,0,0,1-2.968-2.075,3.1,3.1,0,0,1,.726-3.2,3.364,3.364,0,0,1,3.476-.324,50.919,50.919,0,0,1,6.051,3.829.534.534,0,0,1-.227.967Z" transform="translate(-193.813 -270.984)" fill="#6b4423"/></svg>